<?xml version="1.0" encoding="UTF-8" standalone="no"?><!-- Generator: Gravit.io --><svg xmlns="http://www.w3.org/2000/svg" xmlns:xlink="http://www.w3.org/1999/xlink" style="isolation:isolate" viewBox="0 0 256 268" width="256pt" height="268pt"><defs><clipPath id="_clipPath_GkRyC6DG8bFtfcHwTR3rV3EdClOqiiKd"><rect width="256" height="268"/></clipPath></defs><g clip-path="url(#_clipPath_GkRyC6DG8bFtfcHwTR3rV3EdClOqiiKd)"><path d=" M 17.458 0 L 0 46.556 L 0 232.757 L 63.983 232.757 L 63.983 267.691 L 98.914 267.691 L 133.812 232.757 L 186.172 232.757 L 256 162.954 L 256 0 L 17.458 0 L 17.458 0 Z  M 40.717 23.263 L 232.731 23.263 L 232.731 151.292 L 191.992 192.033 L 128 192.033 L 93.113 226.919 L 93.113 192.033 L 40.717 192.033 L 40.717 23.263 L 40.717 23.263 Z  M 104.725 139.668 L 128 139.668 L 128 69.844 L 104.725 69.844 L 104.725 139.668 L 104.725 139.668 Z  M 168.722 139.668 L 191.992 139.668 L 191.992 69.844 L 168.722 69.844 L 168.722 139.668 L 168.722 139.668 Z " fill="rgb(45,44,45)"/></g></svg>